HIERARCHY
ROOT root
{
	OFFSET	0	13.1	24.9
	CHANNELS 6  Xposition Yposition Zposition Xrotation Yrotation Zrotation
	JOINT spine_1
	{
		OFFSET	0	9.99999	0
		CHANNELS 3  Xrotation Yrotation Zrotation
		JOINT spine_2
		{
			OFFSET	0	112	-10
			CHANNELS 3  Xrotation Yrotation Zrotation
			JOINT spine_3
			{
				OFFSET	0	206.5	19.3
				CHANNELS 3  Xrotation Yrotation Zrotation
				JOINT spine_4
				{
					OFFSET	0	110.4	14.6
					CHANNELS 3  Xrotation Yrotation Zrotation
					JOINT neck_1
					{
						OFFSET	0	71.8	-50.3
						CHANNELS 3  Xrotation Yrotation Zrotation
						JOINT neck_2
						{
							OFFSET	0	86.2	-25.8
							CHANNELS 3  Xrotation Yrotation Zrotation
							JOINT head_ee
							{
								OFFSET	0	179.8	-8.7
								CHANNELS 3  Xrotation Yrotation Zrotation
								End Site
								{
									OFFSET	1	0	0
								}
							}
						}
					}
					JOINT left_clavicle
					{
						OFFSET	-43.2	22.4	-70.8
						CHANNELS 3  Xrotation Yrotation Zrotation
						JOINT left_shoulder
						{
							OFFSET	-93.9	-5.79999	48.7
							CHANNELS 3  Xrotation Yrotation Zrotation
							JOINT left_elbow
							{
								OFFSET	-291.4	-30.8	15.2
								CHANNELS 3  Xrotation Yrotation Zrotation
								JOINT left_lowarm_twist
								{
									OFFSET	-110.7	-3.89999	13.6
									CHANNELS 3  Xrotation Yrotation Zrotation
									JOINT left_hand
									{
										OFFSET	-110.7	-3.89999	13.6
										CHANNELS 3  Xrotation Yrotation Zrotation
										JOINT left_ee
										{
											OFFSET	-80.8	-5.10001	12.1
											CHANNELS 3  Xrotation Yrotation Zrotation
											End Site
											{
												OFFSET	1	0	0
											}
										}
									}
								}
							}
						}
					}
					JOINT right_clavicle
					{
						OFFSET	43.2	22.4	-70.8
						CHANNELS 3  Xrotation Yrotation Zrotation
						JOINT right_shoulder
						{
							OFFSET	93.9	-5.79999	48.7
							CHANNELS 3  Xrotation Yrotation Zrotation
							JOINT right_elbow
							{
								OFFSET	291.4	-30.8	15.2
								CHANNELS 3  Xrotation Yrotation Zrotation
								JOINT right_lowarm_twist
								{
									OFFSET	110.7	-3.89999	13.6
									CHANNELS 3  Xrotation Yrotation Zrotation
									JOINT right_hand
									{
										OFFSET	110.7	-3.89999	13.6
										CHANNELS 3  Xrotation Yrotation Zrotation
										JOINT right_ee
										{
											OFFSET	80.8	-5.10001	12.1
											CHANNELS 3  Xrotation Yrotation Zrotation
											End Site
											{
												OFFSET	1	0	0
											}
										}
									}
								}
							}
						}
					}
				}
			}
		}
	}
	JOINT left_hip
	{
		OFFSET	-82.8	-127.5	0.300001
		CHANNELS 3  Xrotation Yrotation Zrotation
		JOINT left_knee
		{
			OFFSET	-28.2	-396.7	2.2
			CHANNELS 3  Xrotation Yrotation Zrotation
			JOINT left_ankle
			{
				OFFSET	-11.7	-411.3	35.4
				CHANNELS 3  Xrotation Yrotation Zrotation
				JOINT left_toes
				{
					OFFSET	0	-60	-88.6
					CHANNELS 3  Xrotation Yrotation Zrotation
					JOINT left_foot_ee
					{
						OFFSET	-22.5	-16.5	-42.2
						CHANNELS 3  Xrotation Yrotation Zrotation
						End Site
						{
							OFFSET	1	0	0
						}
					}
				}
			}
		}
	}
	JOINT right_hip
	{
		OFFSET	82.8	-127.5	0.300001
		CHANNELS 3  Xrotation Yrotation Zrotation
		JOINT right_knee
		{
			OFFSET	28.2	-396.7	2.2
			CHANNELS 3  Xrotation Yrotation Zrotation
			JOINT right_ankle
			{
				OFFSET	11.7	-411.3	35.4
				CHANNELS 3  Xrotation Yrotation Zrotation
				JOINT right_toes
				{
					OFFSET	0	-60	-88.6
					CHANNELS 3  Xrotation Yrotation Zrotation
					JOINT right_foot_ee
					{
						OFFSET	22.5	-16.5	-42.2
						CHANNELS 3  Xrotation Yrotation Zrotation
						End Site
						{
							OFFSET	1	0	0
						}
					}
				}
			}
		}
	}
}
MOTION
Frames: 7
Frame Time: 0.02
2881.51969751 710.017 -1841.63213981 4.30734950955 41.9170079035 2.03734394721 -1.27453 -0.644347 -2.12113 -1.27217 -0.508101 -2.15781 -1.25045 0.00501927 -2.21679 -1.25715 -0.345059 -2.18979 -0.792417 13.6989 8.44992 -0.477676 17.7496 10.5235 -0.0 0.0 -0.0 10.3742 3.53154 20.1963 -13.5763 -21.0346 44.5976 1.64513 -39.1751 0.585437 6.78421 0.189154 -0.845449 -0.963489 21.7262 3.06371 -0.0 0.0 -0.0 8.03427 10.5476 -15.5686 -28.9192 21.5192 -56.4763 0.542521 15.0429 -0.0716313 26.3922 -0.1637 3.33775 0.457396 -17.6452 -9.98172 0.0 0.0 0.0 10.8863 0.863693 -3.33946 -28.4648 0.0997987 4.32244 24.7952 27.1796 -3.5295 -31.6706 0.0 0.0 -0.0 0.0 -0.0 21.9988 7.93785 -7.6957 -60.3238 2.23505 -8.56103 26.1033 0.939802 3.48709 9.1679 -0.0 -0.0 0.0 0.0 0.0 
2876.17624075 710.017 -1832.12511429 4.43643052324 43.7383795388 1.84748600462 -1.27453 -0.644347 -2.12113 -1.27217 -0.508101 -2.15781 -1.25045 0.00501927 -2.21679 -1.25715 -0.345059 -2.18979 -0.792417 13.6989 8.44992 -0.477676 17.7496 10.5235 -0.0 0.0 -0.0 10.3742 3.53154 20.1963 -13.5763 -21.0346 44.5976 1.64513 -39.1751 0.585437 6.78421 0.189154 -0.845449 -0.963489 21.7262 3.06371 -0.0 0.0 -0.0 8.03427 10.5476 -15.5686 -28.9192 21.5192 -56.4763 0.542521 15.0429 -0.0716313 26.3922 -0.1637 3.33775 0.457396 -17.6452 -9.98172 0.0 0.0 0.0 10.8863 0.863693 -3.33946 -28.4648 0.0997987 4.32244 24.7952 27.1796 -3.5295 -31.6706 0.0 0.0 -0.0 0.0 -0.0 21.9988 7.93785 -7.6957 -60.3238 2.23505 -8.56103 26.1033 0.939802 3.48709 9.1679 -0.0 -0.0 0.0 0.0 0.0 
2870.76444245 710.017 -1821.70317329 4.58970827618 45.699258692 1.62967888119 -1.27453 -0.644347 -2.12113 -1.27217 -0.508101 -2.15781 -1.25045 0.00501927 -2.21679 -1.25715 -0.345059 -2.18979 -0.792417 13.6989 8.44992 -0.477676 17.7496 10.5235 -0.0 0.0 -0.0 10.3742 3.53154 20.1963 -13.5763 -21.0346 44.5976 1.64513 -39.1751 0.585437 6.78421 0.189154 -0.845449 -0.963489 21.7262 3.06371 -0.0 0.0 -0.0 8.03427 10.5476 -15.5686 -28.9192 21.5192 -56.4763 0.542521 15.0429 -0.0716313 26.3922 -0.1637 3.33775 0.457396 -17.6452 -9.98172 0.0 0.0 0.0 10.8863 0.863693 -3.33946 -28.4648 0.0997987 4.32244 24.7952 27.1796 -3.5295 -31.6706 0.0 0.0 -0.0 0.0 -0.0 21.9988 7.93785 -7.6957 -60.3238 2.23505 -8.56103 26.1033 0.939802 3.48709 9.1679 -0.0 -0.0 0.0 0.0 0.0 
2850.98100968 711.833 -1811.41982795 4.20125050794 46.8819312118 2.01229967488 -0.980419 -0.818534 -2.31983 -0.977674 -0.669301 -2.36718 -0.947078 -0.116508 -2.45717 -0.955151 -0.502996 -2.40799 -3.62915 13.2635 8.80026 -3.36206 17.445 11.0668 -0.0 0.0 -0.0 10.5924 1.29216 20.8036 -11.9643 -20.6236 43.6631 1.61518 -38.6608 0.566624 8.3484 0.218471 -1.0431 -1.02327 21.8967 2.78778 -0.0 0.0 -0.0 7.51569 9.70939 -14.4914 -30.9918 22.4127 -55.8504 0.64382 17.6891 -0.100182 25.1037 -0.191561 3.17552 0.680791 -16.7829 -11.056 0.0 0.0 0.0 8.42859 4.51076 -3.18266 -24.0608 0.225372 3.6584 26.5976 26.0855 -3.72836 -31.5684 0.0 0.0 -0.0 0.0 -0.0 26.9283 6.8187 -5.91383 -59.3234 2.12737 -8.45048 23.4128 0.762078 3.17218 8.72174 -0.0 -0.0 0.0 0.0 0.0 
2807.4390791 709.411 -1816.13449855 2.57885011923 48.0347581851 2.80072886337 -0.717448 -1.04534 -2.86967 -0.713279 -0.860701 -2.9303 -0.665094 -0.190821 -3.04802 -0.677432 -0.66959 -2.97975 -7.38144 12.1352 7.64329 -7.25103 17.1411 10.1062 -0.0 0.0 -0.0 10.8766 -2.11066 21.5957 -8.89777 -19.3231 43.5116 1.60088 -38.4126 0.557715 9.98127 0.243305 -1.25019 -1.12982 20.1098 1.38659 -0.0 0.0 -0.0 6.4192 7.69445 -12.2596 -33.1192 22.849 -54.977 0.712672 19.4449 -0.122108 22.5918 -0.235354 2.85766 0.523281 -16.2884 -9.89321 0.0 0.0 0.0 6.44223 10.6525 -2.71133 -22.3222 0.26083 3.39396 29.0616 22.6749 -3.94731 -31.1772 0.0 0.0 -0.0 0.0 -0.0 34.2934 8.866 -4.58379 -56.4753 1.83165 -8.12581 20.756 -1.19336 2.83876 8.44156 -0.0 -0.0 0.0 0.0 0.0 
2806.81846328 709.411 -1814.56279875 2.59111186447 48.2779648063 2.7842694779 -0.717448 -1.04534 -2.86967 -0.713279 -0.860701 -2.9303 -0.665094 -0.190821 -3.04802 -0.677432 -0.66959 -2.97975 -7.38144 12.1352 7.64329 -7.25103 17.1411 10.1062 -0.0 0.0 -0.0 10.8766 -2.11066 21.5957 -8.89777 -19.3231 43.5116 1.60088 -38.4126 0.557715 9.98127 0.243305 -1.25019 -1.12982 20.1098 1.38659 -0.0 0.0 -0.0 6.4192 7.69445 -12.2596 -33.1192 22.849 -54.977 0.712672 19.4449 -0.122108 22.5918 -0.235354 2.85766 0.523281 -16.2884 -9.89321 0.0 0.0 0.0 6.44223 10.6525 -2.71133 -22.3222 0.26083 3.39396 29.0616 22.6749 -3.94731 -31.1772 0.0 0.0 -0.0 0.0 -0.0 34.2934 8.866 -4.58379 -56.4753 1.83165 -8.12581 20.756 -1.19336 2.83876 8.44156 -0.0 -0.0 0.0 0.0 0.0 
2763.42091201 707.22 -1824.27105688 1.38148161048 49.0947629506 3.46362517448 -0.531437 -1.15871 -3.20966 -0.52621 -0.952232 -3.27679 -0.466892 -0.21534 -3.40541 -0.482288 -0.750159 -3.32882 -9.66833 11.5156 6.25551 -9.65391 17.4182 8.91165 -0.0 0.0 -0.0 11.0619 -4.36831 22.0875 -5.99249 -18.3268 43.3458 1.62422 -38.8168 0.57228 10.6171 0.251377 -1.33101 -1.24362 18.091 -0.187277 -0.0 0.0 -0.0 5.59861 5.19241 -10.6671 -34.7871 22.5997 -54.4106 0.723305 19.7128 -0.125672 21.0246 -0.255601 2.65851 0.366801 -15.6985 -8.69716 0.0 0.0 0.0 3.70055 14.7852 -1.45384 -20.4127 0.290504 3.10248 30.3319 19.7043 -4.03598 -30.9463 0.0 0.0 -0.0 0.0 -0.0 39.0709 8.86095 -3.99084 -50.7452 1.28769 -7.43072 19.815 -3.26527 2.7139 8.44213 -0.0 -0.0 0.0 0.0 0.0 
